<svg width="1013" height="323" viewBox="0 0 1013 323" fill="none" xmlns="http://www.w3.org/2000/svg">
<path fill-rule="evenodd" clip-rule="evenodd" d="M143.119 0.907765C141.558 1.08365 135.817 2.12111 130.362 3.21288C73.0084 14.6907 25.6115 56.9902 7.80026 112.593C2.17281 130.161 0.0727504 146.053 0.682263 166.45C1.58843 196.764 10.3388 224.216 27.0728 249.242C67.3396 309.459 142.179 336.02 211.608 314.735C256.519 300.965 294.362 267.103 312.967 224.033C326.615 192.441 329.674 155.592 321.385 122.624C305.361 58.8884 252.364 11.2362 186.783 1.59508C178.77 0.417393 151.311 -0.0146087 143.119 0.907765ZM181.797 18.5577C231.181 25.5776 271.611 54.4111 293.424 98.1672C303.874 119.128 309.355 144.836 308.074 166.891C306.515 193.754 298.639 217.961 284.605 239.027C262.063 272.863 228.771 294.754 188.102 302.483C182.52 303.544 176.529 303.859 162.571 303.829C145.772 303.792 143.511 303.612 133.894 301.54C75.9449 289.058 32.3104 245.279 20.6738 187.941C17.9302 174.423 17.5581 152.453 19.8446 138.928C24.9728 108.592 37.3276 83.9538 58.4044 62.0309C74.6278 45.1566 93.0388 33.3076 115.174 25.4941C135.473 18.3299 161.289 15.6414 181.797 18.5577ZM78.9997 63.4095C49.406 87.9189 32.1678 124.11 32.0932 161.89C31.9692 224.212 74.8734 276.506 137.04 289.805C144.835 291.472 148.145 291.712 163.382 291.709C177.006 291.708 182.31 291.391 187.697 290.258C227.534 281.874 258.661 259.271 278.335 224.438C298.548 188.653 299.356 142.654 280.438 104.698C273.008 89.792 258.969 72.63 245.244 61.6758L239.165 56.824L238.938 67.1371L238.711 77.4502L246.25 85.3795C258.153 97.8972 266.176 111.058 271.484 126.77C287.596 174.467 270.031 227.009 228.474 255.419C172.486 293.695 97.4375 276.659 63.4191 217.954C58.5252 209.509 54.6825 199.833 51.8302 188.775C49.6621 180.371 49.5292 178.883 49.5203 162.839C49.5113 146.219 49.5729 145.581 52.1463 135.771C57.6741 114.699 68.2231 96.4043 83.4917 81.4088L88.003 76.9785V67.022C88.003 61.5461 87.7007 57.0656 87.3319 57.0656C86.9623 57.0656 83.2128 59.9202 78.9997 63.4095ZM200.631 61.7431C199.981 62.6468 189.055 74.983 176.35 89.1558C153.261 114.913 142.761 126.659 118.41 153.978C111.284 161.972 103.807 170.272 101.794 172.422C99.7815 174.572 98.013 176.669 97.8646 177.083C97.7025 177.533 107.201 177.833 121.572 177.833C134.76 177.833 145.55 177.96 145.55 178.115C145.55 178.269 142.989 190.397 139.859 205.064C131.726 243.171 130.018 251.617 130.303 252.327C130.442 252.673 137.519 245.08 146.03 235.455C154.541 225.829 174.237 203.579 189.798 186.008C222.199 149.426 228.223 142.499 228.223 141.836C228.223 141.574 217.464 141.36 204.313 141.36C185.658 141.36 180.402 141.136 180.402 140.341C180.402 139.781 180.775 138.049 181.231 136.491C188.344 112.188 202.317 61.615 202.1 60.9634C201.941 60.4884 201.281 60.8394 200.631 61.7431ZM940.248 100.014C921.086 102.83 903.623 115.021 894.954 131.634C890.75 139.691 888.763 147.141 888.254 156.76C887.693 167.358 889.659 176.558 894.661 186.749C897.413 192.354 899.412 194.999 905.381 200.933C913.729 209.232 918.772 212.48 928.658 215.928C946.041 221.99 962.199 220.959 979.234 212.7C997.136 204.023 1009.21 187.64 1012.04 168.189C1017.95 127.59 982.385 93.8195 940.248 100.014ZM809.773 101.941C791.995 106.866 777.848 118.297 770.516 133.66C765.926 143.279 764.565 149.203 764.56 159.597C764.551 177.295 770.483 191.09 783.219 202.984C790.344 209.637 801.657 215.601 811.799 218.05C819.796 219.981 833.672 220.034 841.45 218.162C853.194 215.336 865.903 208.641 872.559 201.774C875.849 198.379 875.709 198.138 867.138 192.406C859.461 187.271 857.143 187.161 848.943 191.545C840.936 195.825 835.486 197.286 827.53 197.286C816.022 197.286 807.396 193.657 799.793 185.618C786.083 171.121 786.083 148.072 799.793 133.575C807.094 125.855 816.105 121.907 826.421 121.907C834.518 121.907 839.095 123.142 847.981 127.721C857.655 132.708 859.515 132.664 867.494 127.262C876.985 120.837 876.512 121.492 873.754 118.611C866.647 111.185 854.273 104.291 843.352 101.673C833.651 99.3473 818.702 99.4664 809.773 101.941ZM372.86 101.711C372.563 102.193 372.558 105.714 372.85 109.535C373.832 122.344 372.649 121.907 406.295 121.912C422.081 121.915 434.105 122.257 435.894 122.754C445.782 125.5 450.253 138.074 444.456 146.833C440.357 153.027 440.154 153.061 404.512 153.518L372.901 153.923L372.668 183.102C372.539 199.15 372.647 213.466 372.907 214.915L373.38 217.549H385.096H396.812V195.665V173.781L417.278 173.769C439.565 173.756 444.432 173.121 452.118 169.226C465.529 162.43 472.086 150.611 471.187 134.851C470.825 128.49 470.365 126.668 467.824 121.527C462.65 111.06 453.146 104.242 440.58 101.983C432.784 100.582 373.705 100.344 372.86 101.711ZM648.074 108.552C648.074 116.392 648.075 116.397 650.829 119.152L653.585 121.907H680.054C696.446 121.907 707.858 122.243 710.027 122.789C714.344 123.877 719.229 127.786 720.716 131.344C723.31 137.553 721.201 145.873 716.117 149.493C710.879 153.224 708.032 153.518 677.123 153.518H648.074V185.533V217.549H660.231H672.389V195.203V172.856L684.87 173.116C695.902 173.345 697.553 173.559 699.099 174.96C700.812 176.512 703.949 182.153 714.895 203.365C722.498 218.096 721.667 217.549 736.466 217.549C743.128 217.549 748.578 217.256 748.578 216.9C748.578 216.542 743.109 206.056 736.424 193.597C729.739 181.138 724.272 170.579 724.275 170.133C724.278 169.688 725.721 168.633 727.48 167.791C733.37 164.969 739.368 158.797 742.626 152.207C745.193 147.012 745.685 145.126 745.99 139.301C746.193 135.434 745.932 130.826 745.386 128.661C742.161 115.852 732.865 106.776 718.805 102.711C714.88 101.576 708.838 101.307 681.102 101.033L648.074 100.707V108.552ZM479.873 103.468C480.104 104.471 482.846 116.963 485.967 131.228C489.087 145.494 494.639 170.751 498.305 187.357L504.97 217.549H516.65C526.966 217.549 528.641 217.357 530.988 215.907C534.04 214.02 533.428 215.801 543.535 179.454C554.511 139.984 555.393 137.007 555.87 137.78C556.122 138.188 557.235 141.623 558.342 145.412C563.473 162.968 577.726 210.087 578.515 212.105C580.316 216.708 582.504 217.549 592.662 217.549C597.729 217.549 601.874 217.456 601.874 217.342C601.874 217.229 600.769 213.673 599.42 209.44C598.069 205.207 592.932 188.249 588.003 171.754C570.48 113.116 568.857 108.058 566.886 105.919C563.804 102.574 560.504 101.644 551.712 101.644H543.647L542.438 105.494C541.774 107.612 539.887 114.268 538.245 120.286C536.602 126.304 533.882 136.152 532.198 142.17C527.218 159.978 523.359 174.032 522.795 176.415C522.242 178.749 520.822 179.501 520.822 177.46C520.822 176.336 513.682 143.323 507.274 114.815L504.313 101.644H491.884H479.454L479.873 103.468ZM604.756 103.468C604.247 105.842 596.292 153.141 595.242 160.031L594.435 165.329L601.886 190.02C605.985 203.601 609.611 215.21 609.945 215.818C610.569 216.954 610.724 216.263 612.816 202.96C613.412 199.17 617.395 175.343 621.666 150.011C625.937 124.678 629.432 103.432 629.432 102.798C629.432 101.852 627.251 101.644 617.289 101.644C605.353 101.644 605.14 101.675 604.756 103.468ZM166.983 134.268C164.189 144.187 161.78 153.031 161.629 153.923C161.364 155.493 161.914 155.557 179.098 155.949L196.842 156.355L189.23 164.928C185.044 169.644 176.694 179.108 170.676 185.96C164.658 192.811 158.742 199.53 157.529 200.891C156.316 202.252 155.313 202.913 155.3 202.361C155.287 201.809 156.961 193.421 159.02 183.719C161.079 174.018 162.812 165.534 162.87 164.865C162.961 163.828 160.564 163.617 146.502 163.43C137.44 163.309 130.145 162.898 130.291 162.516C130.693 161.461 171.009 116.282 171.572 116.256C171.842 116.243 169.777 124.349 166.983 134.268ZM958.73 122.289C990.356 128.991 998.2 172.944 971.096 191.591C960.223 199.073 941.642 199.303 930.274 192.098C925.507 189.075 919.689 182.263 917.038 176.597C910.026 161.612 913.012 143.26 924.298 131.974C933.273 122.998 945.649 119.518 958.73 122.289Z" fill="white"/>
<mask id="mask0_12_1229" style="mask-type:alpha" maskUnits="userSpaceOnUse" x="0" y="0" width="1013" height="323">
<path fill-rule="evenodd" clip-rule="evenodd" d="M143.119 0.907765C141.558 1.08365 135.817 2.12111 130.362 3.21288C73.0084 14.6907 25.6115 56.9902 7.80026 112.593C2.17281 130.161 0.0727504 146.053 0.682263 166.45C1.58843 196.764 10.3388 224.216 27.0728 249.242C67.3396 309.459 142.179 336.02 211.608 314.735C256.519 300.965 294.362 267.103 312.967 224.033C326.615 192.441 329.674 155.592 321.385 122.624C305.361 58.8884 252.364 11.2362 186.783 1.59508C178.77 0.417393 151.311 -0.0146087 143.119 0.907765ZM181.797 18.5577C231.181 25.5776 271.611 54.4111 293.424 98.1672C303.874 119.128 309.355 144.836 308.074 166.891C306.515 193.754 298.639 217.961 284.605 239.027C262.063 272.863 228.771 294.754 188.102 302.483C182.52 303.544 176.529 303.859 162.571 303.829C145.772 303.792 143.511 303.612 133.894 301.54C75.9449 289.058 32.3104 245.279 20.6738 187.941C17.9302 174.423 17.5581 152.453 19.8446 138.928C24.9728 108.592 37.3276 83.9538 58.4044 62.0309C74.6278 45.1566 93.0388 33.3076 115.174 25.4941C135.473 18.3299 161.289 15.6414 181.797 18.5577ZM78.9997 63.4095C49.406 87.9189 32.1678 124.11 32.0932 161.89C31.9692 224.212 74.8734 276.506 137.04 289.805C144.835 291.472 148.145 291.712 163.382 291.709C177.006 291.708 182.31 291.391 187.697 290.258C227.534 281.874 258.661 259.271 278.335 224.438C298.548 188.653 299.356 142.654 280.438 104.698C273.008 89.792 258.969 72.63 245.244 61.6758L239.165 56.824L238.938 67.1371L238.711 77.4502L246.25 85.3795C258.153 97.8972 266.176 111.058 271.484 126.77C287.596 174.467 270.031 227.009 228.474 255.419C172.486 293.695 97.4375 276.659 63.4191 217.954C58.5252 209.509 54.6825 199.833 51.8302 188.775C49.6621 180.371 49.5292 178.883 49.5203 162.839C49.5113 146.219 49.5729 145.581 52.1463 135.771C57.6741 114.699 68.2231 96.4043 83.4917 81.4088L88.003 76.9785V67.022C88.003 61.5461 87.7007 57.0656 87.3319 57.0656C86.9623 57.0656 83.2128 59.9202 78.9997 63.4095ZM200.631 61.7431C199.981 62.6468 189.055 74.983 176.35 89.1558C153.261 114.913 142.761 126.659 118.41 153.978C111.284 161.972 103.807 170.272 101.794 172.422C99.7815 174.572 98.013 176.669 97.8646 177.083C97.7025 177.533 107.201 177.833 121.572 177.833C134.76 177.833 145.55 177.96 145.55 178.115C145.55 178.269 142.989 190.397 139.859 205.064C131.726 243.171 130.018 251.617 130.303 252.327C130.442 252.673 137.519 245.08 146.03 235.455C154.541 225.829 174.237 203.579 189.798 186.008C222.199 149.426 228.223 142.499 228.223 141.836C228.223 141.574 217.464 141.36 204.313 141.36C185.658 141.36 180.402 141.136 180.402 140.341C180.402 139.781 180.775 138.049 181.231 136.491C188.344 112.188 202.317 61.615 202.1 60.9634C201.941 60.4884 201.281 60.8394 200.631 61.7431ZM940.248 100.014C921.086 102.83 903.623 115.021 894.954 131.634C890.75 139.691 888.763 147.141 888.254 156.76C887.693 167.358 889.659 176.558 894.661 186.749C897.413 192.354 899.412 194.999 905.381 200.933C913.729 209.232 918.772 212.48 928.658 215.928C946.041 221.99 962.199 220.959 979.234 212.7C997.136 204.023 1009.21 187.64 1012.04 168.189C1017.95 127.59 982.385 93.8195 940.248 100.014ZM809.773 101.941C791.995 106.866 777.848 118.297 770.516 133.66C765.926 143.279 764.565 149.203 764.56 159.597C764.551 177.295 770.483 191.09 783.219 202.984C790.344 209.637 801.657 215.601 811.799 218.05C819.796 219.981 833.672 220.034 841.45 218.162C853.194 215.336 865.903 208.641 872.559 201.774C875.849 198.379 875.709 198.138 867.138 192.406C859.461 187.271 857.143 187.161 848.943 191.545C840.936 195.825 835.486 197.286 827.53 197.286C816.022 197.286 807.396 193.657 799.793 185.618C786.083 171.121 786.083 148.072 799.793 133.575C807.094 125.855 816.105 121.907 826.421 121.907C834.518 121.907 839.095 123.142 847.981 127.721C857.655 132.708 859.515 132.664 867.494 127.262C876.985 120.837 876.512 121.492 873.754 118.611C866.647 111.185 854.273 104.291 843.352 101.673C833.651 99.3473 818.702 99.4664 809.773 101.941ZM372.86 101.711C372.563 102.193 372.558 105.714 372.85 109.535C373.832 122.344 372.649 121.907 406.295 121.912C422.081 121.915 434.105 122.257 435.894 122.754C445.782 125.5 450.253 138.074 444.456 146.833C440.357 153.027 440.154 153.061 404.512 153.518L372.901 153.923L372.668 183.102C372.539 199.15 372.647 213.466 372.907 214.915L373.38 217.549H385.096H396.812V195.665V173.781L417.278 173.769C439.565 173.756 444.432 173.121 452.118 169.226C465.529 162.43 472.086 150.611 471.187 134.851C470.825 128.49 470.365 126.668 467.824 121.527C462.65 111.06 453.146 104.242 440.58 101.983C432.784 100.582 373.705 100.344 372.86 101.711ZM648.074 108.552C648.074 116.392 648.075 116.397 650.829 119.152L653.585 121.907H680.054C696.446 121.907 707.858 122.243 710.027 122.789C714.344 123.877 719.229 127.786 720.716 131.344C723.31 137.553 721.201 145.873 716.117 149.493C710.879 153.224 708.032 153.518 677.123 153.518H648.074V185.533V217.549H660.231H672.389V195.203V172.856L684.87 173.116C695.902 173.345 697.553 173.559 699.099 174.96C700.812 176.512 703.949 182.153 714.895 203.365C722.498 218.096 721.667 217.549 736.466 217.549C743.128 217.549 748.578 217.256 748.578 216.9C748.578 216.542 743.109 206.056 736.424 193.597C729.739 181.138 724.272 170.579 724.275 170.133C724.278 169.688 725.721 168.633 727.48 167.791C733.37 164.969 739.368 158.797 742.626 152.207C745.193 147.012 745.685 145.126 745.99 139.301C746.193 135.434 745.932 130.826 745.386 128.661C742.161 115.852 732.865 106.776 718.805 102.711C714.88 101.576 708.838 101.307 681.102 101.033L648.074 100.707V108.552ZM479.873 103.468C480.104 104.471 482.846 116.963 485.967 131.228C489.087 145.494 494.639 170.751 498.305 187.357L504.97 217.549H516.65C526.966 217.549 528.641 217.357 530.988 215.907C534.04 214.02 533.428 215.801 543.535 179.454C554.511 139.984 555.393 137.007 555.87 137.78C556.122 138.188 557.235 141.623 558.342 145.412C563.473 162.968 577.726 210.087 578.515 212.105C580.316 216.708 582.504 217.549 592.662 217.549C597.729 217.549 601.874 217.456 601.874 217.342C601.874 217.229 600.769 213.673 599.42 209.44C598.069 205.207 592.932 188.249 588.003 171.754C570.48 113.116 568.857 108.058 566.886 105.919C563.804 102.574 560.504 101.644 551.712 101.644H543.647L542.438 105.494C541.774 107.612 539.887 114.268 538.245 120.286C536.602 126.304 533.882 136.152 532.198 142.17C527.218 159.978 523.359 174.032 522.795 176.415C522.242 178.749 520.822 179.501 520.822 177.46C520.822 176.336 513.682 143.323 507.274 114.815L504.313 101.644H491.884H479.454L479.873 103.468ZM604.756 103.468C604.247 105.842 596.292 153.141 595.242 160.031L594.435 165.329L601.886 190.02C605.985 203.601 609.611 215.21 609.945 215.818C610.569 216.954 610.724 216.263 612.816 202.96C613.412 199.17 617.395 175.343 621.666 150.011C625.937 124.678 629.432 103.432 629.432 102.798C629.432 101.852 627.251 101.644 617.289 101.644C605.353 101.644 605.14 101.675 604.756 103.468ZM166.983 134.268C164.189 144.187 161.78 153.031 161.629 153.923C161.364 155.493 161.914 155.557 179.098 155.949L196.842 156.355L189.23 164.928C185.044 169.644 176.694 179.108 170.676 185.96C164.658 192.811 158.742 199.53 157.529 200.891C156.316 202.252 155.313 202.913 155.3 202.361C155.287 201.809 156.961 193.421 159.02 183.719C161.079 174.018 162.812 165.534 162.87 164.865C162.961 163.828 160.564 163.617 146.502 163.43C137.44 163.309 130.145 162.898 130.291 162.516C130.693 161.461 171.009 116.282 171.572 116.256C171.842 116.243 169.777 124.349 166.983 134.268ZM958.73 122.289C990.356 128.991 998.2 172.944 971.096 191.591C960.223 199.073 941.642 199.303 930.274 192.098C925.507 189.075 919.689 182.263 917.038 176.597C910.026 161.612 913.012 143.26 924.298 131.974C933.273 122.998 945.649 119.518 958.73 122.289Z" fill="white"/>
</mask>
<g mask="url(#mask0_12_1229)">
<rect x="-147.979" y="-135.551" width="499.224" height="519.061" fill="#FF7A00"/>
</g>
</svg>
